<?xml version="1.0" encoding="UTF-8" standalone="no"?>
<svg width="104px" height="126px" viewBox="0 0 104 126" version="1.1" xmlns="http://www.w3.org/2000/svg" xmlns:xlink="http://www.w3.org/1999/xlink">
    <!-- Generator: Sketch 41.2 (35397) - http://www.bohemiancoding.com/sketch -->
    <title>Page 1</title>
    <desc>Created with Sketch.</desc>
    <defs></defs>
    <g id="R5" stroke="none" stroke-width="1" fill="none" fill-rule="evenodd">
        <g id="C-2" transform="translate(-856.000000, -2067.000000)">
            <g id="Page-1" transform="translate(856.000000, 2067.000000)">
                <polygon id="Fill-1" fill="#000000" points="0 0.000782068965 0 104.276644 32.2486667 104.276644 52 125.303003 71.7522 104.276644 104 104.276644 104 0.000782068965"></polygon>
                <path d="M91.4155667,65.0341614 C86.8889667,68.8888924 82.8745667,70.4191407 77.2759,70.4191407 C71.5108333,70.4191407 66.9296333,68.5499959 63.4820333,64.6926579 C60.2589,61.1220786 58.3929667,56.0759959 58.3929667,50.8595959 C58.3929667,44.7359959 60.8803,39.011251 65.0654333,35.382451 C68.3986333,32.5478855 72.4737,31.1306028 77.5619,31.1306028 C80.7287,31.1306028 83.8365667,31.8101338 86.4929,33.0006166 C88.4177667,33.9078166 89.6059667,34.7594028 91.8671,36.8553476 L85.9867667,43.0371683 C83.3304333,40.7126855 80.7841667,39.6351683 77.9016333,39.6351683 C71.8523,39.6351683 67.6671667,44.1120786 67.6671667,50.5754441 C67.6671667,57.2673476 72.1331,61.9163131 78.4641,61.9163131 C81.6863667,61.9163131 84.0073,60.8952786 85.9867667,58.6846303 L91.4155667,65.0341614 Z M20.6479,69.6831269 L11.4898333,69.6831269 L11.4898333,31.8674855 L22.1767,31.8674855 L32.1867,52.2212648 L42.0805667,31.8674855 L52.8229,31.8674855 L52.8229,69.6831269 L43.6648333,69.6831269 L43.6648333,48.0823821 L32.1867,71.2133752 L20.6479,48.0823821 L20.6479,69.6831269 Z" id="Fill-2" fill="#FFFFFF"></path>
            </g>
        </g>
    </g>
</svg>