<?xml version="1.0" encoding="utf-8"?>
<!-- Generator: Adobe Illustrator 18.1.0, SVG Export Plug-In . SVG Version: 6.00 Build 0)  -->
<svg version="1.1" id="Layer_1" xmlns="http://www.w3.org/2000/svg" xmlns:xlink="http://www.w3.org/1999/xlink" x="0px" y="0px"
	 width="55.7px" height="67.1px" viewBox="0 0 55.7 67.1" enable-background="new 0 0 55.7 67.1" xml:space="preserve">
<g id="R5">
	<g id="C-2" transform="translate(-856.000000, -2067.000000)">
		<g id="Page-1" transform="translate(856.000000, 2067.000000)">
			<polygon id="Fill-1" fill="#010101" points="0,0 0,55.8 17.3,55.8 27.8,67.1 38.4,55.8 55.7,55.8 55.7,0 			"/>
			<path id="Fill-2" fill="#FFFFFF" d="M48.9,34.8c-2.4,2.1-4.6,2.9-7.6,2.9c-3.1,0-5.5-1-7.4-3.1c-1.7-1.9-2.7-4.6-2.7-7.4
				c0-3.3,1.3-6.3,3.6-8.3c1.8-1.5,4-2.3,6.7-2.3c1.7,0,3.4,0.4,4.8,1c1,0.5,1.7,0.9,2.9,2.1L46,23c-1.4-1.2-2.8-1.8-4.3-1.8
				c-3.2,0-5.5,2.4-5.5,5.9c0,3.6,2.4,6.1,5.8,6.1c1.7,0,3-0.5,4-1.7L48.9,34.8z M11.1,37.3H6.2V17.1h5.7L17.2,28l5.3-10.9h5.8v20.2
				h-4.9V25.7l-6.1,12.4l-6.2-12.4V37.3z"/>
		</g>
	</g>
</g>
</svg>
