<svg id="Layer_1" data-name="Layer 1" xmlns="http://www.w3.org/2000/svg" viewBox="0 0 30 30"><defs><style>.cls-1{fill:#fff;fill-rule:evenodd;}</style></defs><title>ADA</title><path class="cls-1" d="M21.08,21.44A9.28,9.28,0,1,1,7.82,12l.26,2a7.42,7.42,0,0,0,3.79,13.81,7.48,7.48,0,0,0,7.37-6.33ZM9.69,14.22A49,49,0,0,1,9,9a2.46,2.46,0,0,1,2.43-2.58c2.17,0,2.47,1.84,2.73,3.8l.11.81h5.89c0,2.28-1.29,2.5-3.24,2.5a22,22,0,0,1-2.29-.11l.48,3.09h8.18l3.94,10.64a3.9,3.9,0,0,1,.22,1c0,.33-.18.48-.92.48a1.89,1.89,0,0,1-2.14-1.48L21.66,19.9H10.58l-.88-5.68ZM12.38.38A2.56,2.56,0,0,1,15,3,2.58,2.58,0,0,1,9.8,3,2.56,2.56,0,0,1,12.38.38Z"/></svg>