<svg id="Layer_1" data-name="Layer 1" xmlns="http://www.w3.org/2000/svg" viewBox="0 0 30 30"><defs><style>.cls-1{fill:#fff;}</style></defs><title>EHO</title><polygon class="cls-1" points="5.72 22.89 4.34 22.89 4.34 25.4 5.77 25.4 5.77 24.96 4.72 24.96 4.72 24.32 5.64 24.32 5.64 23.87 4.72 23.87 4.72 23.34 5.72 23.34 5.72 22.89"/><path class="cls-1" d="M9.59,22.89H9.2v1.65c0,.31-.11.48-.38.48s-.33-.16-.33-.5V22.89h-.4v1.66a1.13,1.13,0,0,0,.15.61.7.7,0,0,0,.6.31c.47,0,.77-.28.77-.95Z"/><polygon class="cls-1" points="12.23 22.89 11.83 22.89 11.83 25.4 13.16 25.4 13.16 24.95 12.23 24.95 12.23 22.89"/><path class="cls-1" d="M10.23,25.4H9.82l.67-2.51h.46l.66,2.51h-.43L11,24.89h-.69Zm.23-.94h.48l-.24-1h0Z"/><path class="cls-1" d="M7.6,25.58l-.23-.28a.81.81,0,0,1-.48.16c-.24,0-.9-.14-.9-1.32s.66-1.32.9-1.32.91.15.91,1.32a1.75,1.75,0,0,1-.2.89l.21.26Zm-.48-1.14.2.25a1.49,1.49,0,0,0,.09-.54c0-.7-.3-.87-.51-.87s-.51.17-.51.87.3.88.51.88A.37.37,0,0,0,7.1,25l-.19-.23Z"/><polygon class="cls-1" points="15.24 24.28 15.24 25.4 15.63 25.4 15.63 22.89 15.24 22.89 15.24 23.85 14.51 23.85 14.51 22.89 14.12 22.89 14.12 25.4 14.51 25.4 14.51 24.28 15.24 24.28"/><path class="cls-1" d="M19.53,22.89h-.4v1.65c0,.31-.11.48-.38.48s-.33-.16-.33-.5V22.89H18v1.66a1.13,1.13,0,0,0,.14.61.7.7,0,0,0,.6.31c.47,0,.77-.28.77-.95Z"/><path class="cls-1" d="M19.8,24.63a.75.75,0,0,0,.8.84.73.73,0,0,0,.74-.82.62.62,0,0,0-.49-.67l-.46-.15a.24.24,0,0,1-.2-.26.29.29,0,0,1,.33-.3.36.36,0,0,1,.39.38h.38a.75.75,0,0,0-.73-.81.7.7,0,0,0-.73.78c0,.56.3.64.6.74l.2.06c.2.06.34.11.34.3s-.2.33-.39.33a.37.37,0,0,1-.4-.41Z"/><polygon class="cls-1" points="23.48 24.64 23.47 24.64 22.73 22.89 22.31 22.89 22.31 25.4 22.68 25.4 22.68 23.62 22.69 23.62 23.45 25.4 23.84 25.4 23.84 22.89 23.48 22.89 23.48 24.64"/><path class="cls-1" d="M25.09,24.48h.44c-.08.51-.37.55-.46.55-.27,0-.55-.18-.55-.86s.26-.9.54-.9.41.32.41.41h.4a.85.85,0,0,0-.83-.85c-.63,0-.92.65-.92,1.33,0,.88.41,1.31.86,1.31a.65.65,0,0,0,.59-.38l0,.31h.26V24.05h-.79Z"/><rect class="cls-1" x="21.54" y="22.95" width="0.44" height="2.48"/><path class="cls-1" d="M16.82,22.84c.25,0,.9.14.9,1.31s-.65,1.32-.9,1.32-.9-.14-.9-1.32.66-1.31.9-1.31m0,2.19c.21,0,.51-.17.51-.88s-.3-.87-.51-.87-.51.17-.51.87.3.88.51.88"/><polygon class="cls-1" points="16.26 26.79 16.92 26.79 16.92 26.26 15.14 26.26 15.14 26.79 15.8 26.79 15.8 29.19 16.26 29.19 16.26 26.79"/><path class="cls-1" d="M18.93,26.27h-.47v1.92c0,.35-.13.56-.45.56s-.39-.18-.39-.59v-1.9h-.47V28.2a1.34,1.34,0,0,0,.17.71.83.83,0,0,0,.7.35c.55,0,.9-.33.9-1.1Z"/><polygon class="cls-1" points="20.7 28.3 20.69 28.3 19.82 26.27 19.34 26.27 19.34 29.19 19.76 29.19 19.76 27.1 19.77 27.1 20.67 29.19 21.12 29.19 21.12 26.27 20.7 26.27 20.7 28.3"/><rect class="cls-1" x="21.51" y="26.27" width="0.46" height="2.92"/><polygon class="cls-1" points="23.3 26.79 23.97 26.79 23.97 26.26 22.18 26.26 22.18 26.79 22.85 26.79 22.85 29.19 23.3 29.19 23.3 26.79"/><polygon class="cls-1" points="25.25 28.09 25.98 26.27 25.46 26.27 25.03 27.53 24.57 26.27 24.03 26.27 24.79 28.08 24.79 29.19 25.25 29.19 25.25 28.09"/><path class="cls-1" d="M5.35,26.18c.29,0,1.05.18,1.05,1.55s-.76,1.54-1.05,1.54S4.3,29.1,4.3,27.73s.76-1.55,1.05-1.55m0,2.57c.24,0,.6-.2.6-1s-.35-1-.6-1-.6.21-.6,1,.35,1,.6,1"/><path class="cls-1" d="M7.21,29.19H6.75V26.27h1c.43,0,.68.36.68.94,0,.26-.11.93-.7.93H7.21Zm.43-1.55c.34,0,.34-.33.34-.46,0-.28-.12-.41-.4-.41H7.21v.86Z"/><path class="cls-1" d="M9.22,29.19H8.76V26.27h1c.42,0,.68.36.68.94,0,.26-.11.93-.7.93H9.22Zm.43-1.55c.34,0,.34-.33.34-.46,0-.28-.12-.41-.4-.41H9.22v.86Z"/><path class="cls-1" d="M11.74,26.18c.29,0,1.05.18,1.05,1.55s-.76,1.54-1.05,1.54-1.05-.17-1.05-1.54.76-1.55,1.05-1.55m0,2.57c.24,0,.59-.2.59-1s-.35-1-.59-1-.6.21-.6,1,.35,1,.6,1"/><path class="cls-1" d="M13.14,26.27h1.11c.59,0,.69.57.69.82a.74.74,0,0,1-.34.7c.18.1.28.19.28.73s0,.53.1.59v.07h-.51a2.61,2.61,0,0,1,0-.59c0-.39,0-.54-.36-.54h-.47v1.14h-.45Zm1,1.28c.24,0,.35-.11.35-.4s-.05-.38-.32-.38h-.57v.78Z"/><path class="cls-1" d="M4.46,21.68V11.38l-1.92,0V9.05L15,.73,27.44,9v2.38h-2V21.69ZM23,19.19,23.07,9l-8-4.9L7,9V19.19Z"/><rect class="cls-1" x="10.14" y="10.15" width="10.05" height="2.39"/><rect class="cls-1" x="10.14" y="14.07" width="10.05" height="2.39"/></svg>