<?xml version="1.0" encoding="UTF-8" standalone="no"?>
<svg width="376px" height="95px" viewBox="0 0 376 95" version="1.1" xmlns="http://www.w3.org/2000/svg" xmlns:xlink="http://www.w3.org/1999/xlink">
    <!-- Generator: Sketch 41.2 (35397) - http://www.bohemiancoding.com/sketch -->
    <title>JAG</title>
    <desc>Created with Sketch.</desc>
    <defs>
        <polygon id="path-1" points="39.9498067 37.1797818 39.9498067 0.143684282 0.227223578 0.143684282 0.227223578 37.1797818 39.9498067 37.1797818"></polygon>
    </defs>
    <g id="R5" stroke="none" stroke-width="1" fill="none" fill-rule="evenodd">
        <g id="C-2" transform="translate(-39.000000, -60.000000)">
            <g id="JAG" transform="translate(39.000000, 60.000000)">
                <path d="M33.4543101,0.263065041 L50.5660469,13.8411138 L50.5660469,75.6436341 C50.5660469,75.6436341 50.5660469,91.5750569 34.3160949,91.5827805 C20.7883416,91.5879295 15.033918,91.5820081 15.033918,91.5820081 L33.4543101,0.263065041 Z" id="Fill-1" fill="#FFFFFF"></path>
                <g id="Group-5" transform="translate(0.000000, 0.046341)" fill="#FFFFFF">
                    <path d="M-2.57710763e-05,91.5440081 L15.0340469,91.5440081 C15.0340469,91.5440081 33.4549544,92.6616098 33.4549544,70.8780325 C33.4549544,49.7223821 33.4541812,0.211162602 33.4541812,0.211162602 L15.0340469,13.0410542 L15.0340469,66.3260136 C14.9928132,66.2359051 15.6698193,73.5179512 9.5285719,73.5179512 C4.02258149,73.5179512 -2.57710763e-05,73.518981 -2.57710763e-05,73.518981 L-2.57710763e-05,91.5440081 Z" id="Fill-3"></path>
                </g>
                <path d="M55.6222289,33.6637778 L55.6245483,79.9179648 C55.6245483,79.9179648 55.7016038,89.6846856 48.2318574,91.1902683 L61.4604085,90.4140488 C61.4604085,90.4140488 70.7995888,90.5561626 70.7995888,74.8667453 C70.7995888,60.8734255 70.7985579,46.8790759 70.7985579,46.8790759 L55.6222289,33.6637778 Z" id="Fill-6" fill="#FFFFFF"></path>
                <path d="M93.1415397,41.4463117 C93.1415397,34.2749702 93.1415397,32.9534661 93.0474753,31.4432493 C92.9531531,29.8403496 92.5750914,29.0860136 91.0159413,28.7564743 C90.6386528,28.6635339 89.835626,28.6148753 89.1743402,28.6148753 C88.6547953,28.6148753 88.3713135,28.5206477 88.3713135,28.1911084 C88.3713135,27.8610542 88.7019564,27.767084 89.4104033,27.767084 C91.9138056,27.767084 94.8895918,27.9084255 96.1175836,27.9084255 C97.2512532,27.9084255 100.226266,27.767084 102.068383,27.767084 C102.729926,27.767084 103.060311,27.8610542 103.060311,28.1911084 C103.060311,28.5206477 102.77683,28.6148753 102.210124,28.6148753 C101.690836,28.6148753 101.407097,28.6635339 100.840649,28.7564743 C99.5652381,28.9928157 99.1871764,29.7927209 99.093112,31.4432493 C98.9987899,32.9534661 98.9987899,34.2749702 98.9987899,41.4463117 L98.9987899,50.176271 C98.9987899,52.2047398 99.1400154,54.4692927 99.1400154,56.8288455 C99.1400154,59.5181951 98.9513711,62.5381138 98.0063457,65.1808645 C97.0146747,68.0594417 94.5110147,71.3141572 89.9771093,74.0990217 C89.3637576,74.4759322 88.6073766,74.8531003 87.6159633,75.3262981 C87.2845472,75.5134661 86.9075164,75.6079512 86.6714533,75.6079512 C86.4817782,75.6079512 86.2931339,75.4666098 86.2931339,75.2310407 C86.2931339,74.9952141 86.5294547,74.8062439 87.3324814,74.3814472 C87.9463485,74.0503631 88.6547953,73.5321111 89.599563,72.58829 C93.1889585,68.9556341 93.1415397,64.2378157 93.1415397,54.9893469 L93.1415397,41.4463117 Z" id="Fill-8" fill="#FFFFFF"></path>
                <path d="M115.386463,41.4463117 C115.386463,34.2749702 115.386463,32.9534661 115.292398,31.4432493 C115.197818,29.8403496 114.820014,29.0860136 113.261122,28.7564743 C112.883318,28.6635339 112.080291,28.6148753 111.419521,28.6148753 C110.89946,28.6148753 110.616494,28.5206477 110.616494,28.1911084 C110.616494,27.8610542 110.947137,27.767084 111.655326,27.767084 C112.930737,27.767084 114.300469,27.8139404 115.4813,27.8139404 C116.709034,27.8610542 117.795543,27.9084255 118.456313,27.9084255 C119.967787,27.9084255 129.367014,27.9084255 130.264362,27.8610542 C131.161969,27.767084 131.917577,27.6733713 132.295381,27.5781138 C132.531444,27.5312575 132.815184,27.3891436 133.051247,27.3891436 C133.28731,27.3891436 133.334728,27.5781138 133.334728,27.8139404 C133.334728,28.1429648 133.098665,28.7093604 132.956667,30.877626 C132.909506,31.3490217 132.815184,33.4248618 132.720346,33.9917724 C132.673443,34.2278564 132.579378,34.5102818 132.248478,34.5102818 C131.917577,34.5102818 131.822997,34.2749702 131.822997,33.8506883 C131.822997,33.5203767 131.775836,32.7186694 131.540031,32.1517588 C131.208872,31.3024228 130.736746,30.7367995 128.375085,30.4523144 C127.572574,30.3583442 122.61293,30.264374 121.668935,30.264374 C121.432099,30.264374 121.338035,30.4064878 121.338035,30.7367995 L121.338035,42.6738455 C121.338035,43.0038997 121.385196,43.1920976 121.668935,43.1920976 C122.70751,43.1920976 128.13928,43.1920976 129.22553,43.0981274 C130.3592,43.0038997 131.067647,42.8617859 131.492612,42.3903902 C131.822997,42.0127073 132.011899,41.7766233 132.248478,41.7766233 C132.43738,41.7766233 132.579378,41.8711084 132.579378,42.1548211 C132.579378,42.4375041 132.389703,43.1920976 132.201059,45.5995366 C132.153898,46.5433577 132.011899,48.4297127 132.011899,48.7600244 C132.011899,49.1371924 132.011899,49.6572466 131.587192,49.6572466 C131.256549,49.6572466 131.161969,49.4675041 131.161969,49.2316775 C131.11455,48.7600244 131.11455,48.1467724 130.972809,47.5340352 C130.736746,46.5894417 130.075718,45.882477 128.327924,45.6935068 C127.430833,45.5995366 122.754671,45.5521653 121.621001,45.5521653 C121.385196,45.5521653 121.338035,45.7403631 121.338035,46.0238184 L121.338035,49.7517317 C121.338035,51.3551463 121.290616,55.6968266 121.338035,57.0646721 C121.432099,60.3201599 122.188223,61.0289268 127.00561,61.0289268 C128.233859,61.0289268 130.217201,61.0289268 131.445193,60.4622737 C132.673443,59.8953631 133.239891,58.9046856 133.570792,56.9709593 C133.665371,56.4516775 133.759693,56.2627073 134.089821,56.2627073 C134.46814,56.2627073 134.46814,56.6406477 134.46814,57.1123008 C134.46814,58.1982358 134.089821,61.4053225 133.854273,62.349916 C133.523373,63.5771924 133.098665,63.5771924 131.303968,63.5771924 C127.761476,63.5771924 125.163236,63.481935 123.132733,63.4343062 C121.101456,63.3405935 119.637402,63.2929648 118.220508,63.2929648 C117.701221,63.2929648 116.662131,63.2929648 115.528203,63.3405935 C114.442468,63.3405935 113.213703,63.4343062 112.269193,63.4343062 C111.655326,63.4343062 111.324425,63.2929648 111.324425,62.9629106 C111.324425,62.727084 111.513843,62.5857425 112.080291,62.5857425 C112.789253,62.5857425 113.355702,62.4912575 113.780924,62.3967724 C114.725434,62.2070298 114.961755,61.1694959 115.150915,59.8016504 C115.386463,57.819523 115.386463,54.0923821 115.386463,49.7517317 L115.386463,41.4463117 Z" id="Fill-10" fill="#FFFFFF"></path>
                <path d="M151.423421,49.7516802 C151.423421,54.2805285 151.423421,57.8194715 151.659226,59.8018564 C151.801225,61.1694444 152.084707,62.2069783 153.501343,62.3967209 C154.162886,62.491206 155.201718,62.5856911 155.863004,62.5856911 C156.477129,62.5856911 156.666031,62.7270325 156.666031,62.9628591 C156.666031,63.2931707 156.335646,63.4342547 155.627199,63.4342547 C152.65167,63.4342547 149.675627,63.2931707 148.447893,63.2931707 C147.219643,63.2931707 144.244115,63.4342547 142.449159,63.4342547 C141.787873,63.4342547 141.45723,63.3407995 141.45723,62.9628591 C141.45723,62.7270325 141.646132,62.5856911 142.165677,62.5856911 C142.87464,62.5856911 143.441088,62.491206 143.866311,62.3967209 C144.810821,62.2069783 145.047141,61.1694444 145.236301,59.8018564 C145.471849,57.8194715 145.471849,54.2805285 145.471849,49.7516802 L145.471849,41.4462602 C145.471849,34.2749187 145.471849,32.9534146 145.377784,31.4431978 C145.283204,29.8405556 144.905143,29.0859621 143.346508,28.7566802 C142.968704,28.6634824 142.165677,28.6148238 141.504649,28.6148238 C141.032781,28.6148238 140.70188,28.5208537 140.70188,28.2381707 C140.70188,27.8612602 141.079426,27.7670325 141.787873,27.7670325 C143.016381,27.7670325 144.385856,27.8138889 145.613847,27.8138889 C146.841839,27.8612602 147.92809,27.908374 148.589633,27.908374 C150.384073,27.908374 159.972202,27.908374 161.058453,27.8612602 C161.955802,27.8138889 162.522766,27.8138889 162.994892,27.6735772 C163.278116,27.5783198 163.514694,27.3893496 163.7505,27.3893496 C163.939659,27.3893496 164.081143,27.5783198 164.081143,27.8138889 C164.081143,28.1429133 163.84508,28.7093089 163.703596,29.9347832 C163.656178,30.4064363 163.562113,33.1894986 163.467276,33.7556369 C163.420115,34.1335772 163.325535,34.4160027 162.994892,34.4160027 C162.664249,34.4160027 162.569669,34.1799187 162.522766,33.6611518 C162.522766,33.2842412 162.522766,32.5291328 162.239284,31.8687669 C161.908641,31.2084011 160.91697,30.500664 159.121757,30.4525203 L151.848386,30.3111789 C151.564646,30.3111789 151.423421,30.4525203 151.423421,30.9720596 L151.423421,42.7677642 C151.423421,43.0509621 151.470582,43.1920461 151.753806,43.1920461 L157.799443,43.1459621 C158.601954,43.1459621 159.263755,43.1459621 159.924784,43.0980759 C160.82239,43.0509621 161.483418,42.8617344 161.955802,42.2489973 C162.192381,41.9660569 162.286445,41.7765718 162.569669,41.7765718 C162.758829,41.7765718 162.853666,41.9186856 162.853666,42.2013686 C162.853666,42.4855962 162.617088,43.6644715 162.475347,45.1280894 C162.381283,46.0706233 162.286445,48.2409485 162.286445,48.5712602 C162.286445,48.9957995 162.286445,49.4674526 161.814061,49.4674526 C161.530837,49.4674526 161.436257,49.1371409 161.436257,48.8070867 C161.436257,48.4767751 161.341935,47.9106369 161.153548,47.3450136 C160.91697,46.6841328 160.208523,45.8342818 158.743953,45.6463415 C157.563122,45.5039702 152.556317,45.5039702 151.753806,45.5039702 C151.517485,45.5039702 151.423421,45.5994851 151.423421,45.9297967 L151.423421,49.7516802 Z" id="Fill-12" fill="#FFFFFF"></path>
                <path d="M182.218594,49.7516802 C182.218594,54.2805285 182.218594,57.8194715 182.454399,59.8018564 C182.595883,61.1694444 182.879622,62.2069783 184.296516,62.3967209 C184.957544,62.491206 185.996118,62.5856911 186.657404,62.5856911 C187.271529,62.5856911 187.459916,62.7270325 187.459916,62.9628591 C187.459916,63.2931707 187.12953,63.4342547 186.422372,63.4342547 C183.446328,63.4342547 180.4708,63.2931707 179.242035,63.2931707 C178.013785,63.2931707 175.037999,63.4342547 173.243301,63.4342547 C172.582016,63.4342547 172.25163,63.3407995 172.25163,62.9628591 C172.25163,62.7270325 172.440532,62.5856911 172.960077,62.5856911 C173.669297,62.5856911 174.235488,62.491206 174.661226,62.3967209 C175.604963,62.2069783 175.841541,61.1694444 176.02967,59.8018564 C176.265991,57.8194715 176.265991,54.2805285 176.265991,49.7516802 L176.265991,41.4462602 C176.265991,34.2749187 176.265991,32.9534146 176.172442,31.4431978 C176.077862,29.8405556 175.699027,29.0859621 174.140393,28.7566802 C173.763362,28.6634824 172.960077,28.6148238 172.298534,28.6148238 C171.826923,28.6148238 171.496022,28.5208537 171.496022,28.2381707 C171.496022,27.8612602 171.873826,27.7670325 172.582016,27.7670325 C173.810781,27.7670325 175.180256,27.8138889 176.408505,27.8138889 C177.636239,27.8612602 178.723263,27.908374 179.384291,27.908374 C181.177958,27.908374 190.765571,27.908374 191.852595,27.8612602 C192.75046,27.8138889 193.317166,27.8138889 193.788519,27.6735772 C194.073805,27.5783198 194.309868,27.3893496 194.545931,27.3893496 C194.734833,27.3893496 194.875543,27.5783198 194.875543,27.8138889 C194.875543,28.1429133 194.640253,28.7093089 194.497223,29.9347832 C194.449547,30.4064363 194.355998,33.1894986 194.260387,33.7556369 C194.215288,34.1335772 194.118904,34.4160027 193.788519,34.4160027 C193.457618,34.4160027 193.364842,34.1799187 193.317166,33.6611518 C193.317166,33.2842412 193.317166,32.5291328 193.034457,31.8687669 C192.703041,31.2084011 191.711112,30.500664 189.91693,30.4525203 L182.642786,30.3111789 C182.359046,30.3111789 182.218594,30.4525203 182.218594,30.9720596 L182.218594,42.7677642 C182.218594,43.0509621 182.265497,43.1920461 182.548979,43.1920461 L188.595389,43.1459621 C189.397127,43.1459621 190.058413,43.1459621 190.719441,43.0980759 C191.617563,43.0509621 192.277818,42.8617344 192.75046,42.2489973 C192.986781,41.9660569 193.081103,41.7765718 193.364842,41.7765718 C193.554002,41.7765718 193.647036,41.9186856 193.647036,42.2013686 C193.647036,42.4855962 193.412003,43.6644715 193.268716,45.1280894 C193.17594,46.0706233 193.081103,48.2409485 193.081103,48.5712602 C193.081103,48.9957995 193.081103,49.4674526 192.608203,49.4674526 C192.325495,49.4674526 192.230915,49.1371409 192.230915,48.8070867 C192.230915,48.4767751 192.137108,47.9106369 191.948206,47.3450136 C191.711112,46.6841328 191.002408,45.8342818 189.538611,45.6463415 C188.35778,45.5039702 183.351491,45.5039702 182.548979,45.5039702 C182.312143,45.5039702 182.218594,45.5994851 182.218594,45.9297967 L182.218594,49.7516802 Z" id="Fill-14" fill="#FFFFFF"></path>
                <path d="M207.06052,41.4463117 C207.06052,34.2749702 207.06052,32.9534661 206.967744,31.4432493 C206.87136,29.8403496 206.494845,29.0860136 204.935695,28.7564743 C204.557375,28.6635339 203.754864,28.6148753 203.093578,28.6148753 C202.572229,28.6148753 202.291067,28.5206477 202.291067,28.1911084 C202.291067,27.8610542 202.62171,27.767084 203.328868,27.767084 C204.605052,27.767084 205.975042,27.8139404 207.156646,27.8139404 C208.382834,27.8610542 209.470115,27.9084255 210.130886,27.9084255 C211.642359,27.9084255 221.039782,27.9084255 221.937904,27.8610542 C222.835769,27.767084 223.59215,27.6733713 223.970469,27.5781138 C224.205501,27.5312575 224.488725,27.3891436 224.725304,27.3891436 C224.962398,27.3891436 225.008528,27.5781138 225.008528,27.8139404 C225.008528,28.1429648 224.77298,28.7093604 224.631755,30.877626 C224.583821,31.3490217 224.488725,33.4248618 224.394919,33.9917724 C224.346985,34.2278564 224.253436,34.5102818 223.92305,34.5102818 C223.59215,34.5102818 223.496797,34.2749702 223.496797,33.8506883 C223.496797,33.5203767 223.450924,32.7186694 223.214088,32.1517588 C222.883445,31.3024228 222.411319,30.7367995 220.048111,30.4523144 C219.247146,30.3583442 214.286987,30.264374 213.342993,30.264374 C213.107187,30.264374 213.012608,30.4064878 213.012608,30.7367995 L213.012608,42.6738455 C213.012608,43.0038997 213.058222,43.1920976 213.342993,43.1920976 C214.383113,43.1920976 219.813852,43.1920976 220.900876,43.0981274 C222.033257,43.0038997 222.74222,42.8617859 223.166154,42.3903902 C223.496797,42.0127073 223.685956,41.7766233 223.92305,41.7766233 C224.111952,41.7766233 224.253436,41.8711084 224.253436,42.1548211 C224.253436,42.4375041 224.064018,43.1920976 223.875116,45.5995366 C223.82744,46.5433577 223.685956,48.4297127 223.685956,48.7600244 C223.685956,49.1371924 223.685956,49.6572466 223.259961,49.6572466 C222.929318,49.6572466 222.835769,49.4675041 222.835769,49.2316775 C222.790669,48.7600244 222.790669,48.1467724 222.649186,47.5340352 C222.411319,46.5894417 221.751322,45.882477 220.003012,45.6935068 C219.10489,45.5995366 214.429244,45.5521653 213.296089,45.5521653 C213.058222,45.5521653 213.012608,45.7403631 213.012608,46.0238184 L213.012608,49.7517317 C213.012608,51.3551463 212.965446,55.6968266 213.012608,57.0646721 C213.107187,60.3201599 213.863311,61.0289268 218.679667,61.0289268 C219.908432,61.0289268 221.891774,61.0289268 223.120281,60.4622737 C224.346985,59.8953631 224.914464,58.9046856 225.245107,56.9709593 C225.338913,56.4516775 225.434266,56.2627073 225.764651,56.2627073 C226.143229,56.2627073 226.143229,56.6406477 226.143229,57.1123008 C226.143229,58.1982358 225.764651,61.4053225 225.529619,62.349916 C225.199234,63.5771924 224.77298,63.5771924 222.979571,63.5771924 C219.435533,63.5771924 216.837551,63.481935 214.80679,63.4343062 C212.776544,63.3405935 211.311717,63.2929648 209.89405,63.2929648 C209.374505,63.2929648 208.337734,63.2929648 207.202003,63.3405935 C206.116525,63.3405935 204.888018,63.4343062 203.943766,63.4343062 C203.328868,63.4343062 202.998225,63.2929648 202.998225,62.9629106 C202.998225,62.727084 203.187385,62.5857425 203.754864,62.5857425 C204.462795,62.5857425 205.030274,62.4912575 205.455239,62.3967724 C206.400265,62.2070298 206.636328,61.1694959 206.825488,59.8016504 C207.06052,57.819523 207.06052,54.0923821 207.06052,49.7517317 L207.06052,41.4463117 Z" id="Fill-16" fill="#FFFFFF"></path>
                <path d="M242.720989,45.1738388 C242.720989,45.6936355 242.814538,45.8823482 243.145954,46.0236897 C244.136852,46.3540014 245.553745,46.4953428 246.733545,46.4953428 C248.623338,46.4953428 249.23669,46.307145 250.089712,45.6936355 C251.504802,44.6555867 252.873246,42.485519 252.873246,38.6160068 C252.873246,31.9155461 248.436756,29.98079 245.648325,29.98079 C244.467237,29.98079 243.616534,30.0289336 243.145954,30.1700176 C242.814538,30.2642453 242.720989,30.4524431 242.720989,30.8308984 L242.720989,45.1738388 Z M237.146447,41.4461829 C237.146447,34.2748415 237.146447,32.9533374 237.051867,31.4431206 C236.957287,29.8404783 236.578968,29.0858848 235.020591,28.756603 C234.642272,28.6634051 233.840791,28.6150041 233.178732,28.6150041 C232.659961,28.6150041 232.376994,28.5207764 232.376994,28.1909797 C232.376994,27.8611829 232.707637,27.7672127 233.414022,27.7672127 C235.917167,27.7672127 238.894499,27.9082967 239.885397,27.9082967 C241.493255,27.9082967 245.081619,27.7672127 246.546447,27.7672127 C249.52146,27.7672127 252.686406,28.0488659 255.236454,29.7928496 C256.559541,30.6885271 258.44753,33.0946789 258.44753,36.2567114 C258.44753,39.7487981 256.98296,42.9566572 252.211961,46.8256545 C256.417285,52.110126 259.676037,56.3104648 262.462921,59.2348686 C265.107292,61.971332 267.043215,62.302416 267.751919,62.4437575 C268.271464,62.5379851 268.695914,62.5856138 269.074233,62.5856138 C269.452553,62.5856138 269.641712,62.7269553 269.641712,62.9627818 C269.641712,63.3407222 269.311069,63.434435 268.743848,63.434435 L264.257104,63.434435 C261.613764,63.434435 260.430099,63.1986084 259.204169,62.5379851 C257.17212,61.4528225 255.376133,59.2348686 252.731763,55.6014404 C250.843774,53.0073482 248.669468,49.797687 248.055859,49.0904648 C247.820827,48.8070095 247.538634,48.7601531 247.208248,48.7601531 L243.097504,48.665668 C242.860668,48.665668 242.720989,48.7601531 242.720989,49.0436084 L242.720989,49.7039743 C242.720989,54.0925108 242.720989,57.8196518 242.95499,59.8017791 C243.097504,61.1693672 243.382017,62.2071585 244.798137,62.3966436 C245.505296,62.4913862 246.546447,62.5856138 247.111865,62.5856138 C247.491215,62.5856138 247.67754,62.7269553 247.67754,62.9627818 C247.67754,63.2930935 247.347154,63.434435 246.733545,63.434435 C243.995368,63.434435 240.501584,63.2930935 239.790044,63.2930935 C238.894499,63.2930935 235.917167,63.434435 234.02892,63.434435 C233.414022,63.434435 233.083379,63.2930935 233.083379,62.9627818 C233.083379,62.7269553 233.275116,62.5856138 233.840791,62.5856138 C234.548723,62.5856138 235.116202,62.4913862 235.540394,62.3966436 C236.484388,62.2071585 236.721224,61.1693672 236.909611,59.8017791 C237.146447,57.8196518 237.146447,54.0925108 237.146447,49.751603 L237.146447,41.4461829 Z" id="Fill-18" fill="#FFFFFF"></path>
                <path d="M270.228829,62.8682967 C269.471417,62.5379851 269.329934,62.302416 269.329934,61.2648821 C269.329934,58.6682154 269.51729,55.8372669 269.567543,55.0831883 C269.614447,54.3749363 269.754899,53.8559119 270.132445,53.8559119 C270.558441,53.8559119 270.604314,54.2804512 270.604314,54.659164 C270.604314,55.2711287 270.79605,56.262836 271.03031,57.0645434 C272.069915,60.5558577 274.856541,61.8307629 277.783105,61.8307629 C282.034559,61.8307629 284.114285,58.9524431 284.114285,56.4518062 C284.114285,54.1391098 283.404549,51.9695569 279.485542,48.9014946 L277.310978,47.2038523 C272.118364,43.1461423 270.321347,39.8427683 270.321347,36.0206274 C270.321347,30.8308984 274.668412,27.1071043 281.232821,27.1071043 C284.302414,27.1071043 286.286013,27.5782425 287.514263,27.9082967 C287.939743,28.0032967 288.175806,28.142836 288.175806,28.4726328 C288.175806,29.0858848 287.986389,30.4524431 287.986389,34.1335 C287.986389,35.1707764 287.844906,35.5489743 287.466844,35.5489743 C287.135944,35.5489743 286.993945,35.2660339 286.993945,34.7004106 C286.993945,34.2748415 286.759686,32.8125108 285.768015,31.5852344 C285.057249,30.6885271 283.687516,29.2740827 280.616892,29.2740827 C277.122076,29.2740827 274.999055,31.302294 274.999055,34.1335 C274.999055,36.3038252 276.085306,37.955126 280.004314,40.9279309 L281.327143,41.9186084 C287.042395,46.2126599 289.071867,49.4673753 289.071867,53.9501396 C289.071867,56.6873753 288.034066,59.9431206 284.633314,62.1610745 C282.272168,63.6710339 279.625994,64.0948008 277.122076,64.0948008 C274.3839,64.0948008 272.25727,63.7644892 270.228829,62.8682967" id="Fill-20" fill="#FFFFFF"></path>
                <path d="M327.060598,46.4952913 C327.060598,35.9263482 320.969088,29.3680014 313.223849,29.3680014 C307.792337,29.3680014 301.603671,32.3879201 301.603671,44.1367683 C301.603671,53.9503455 307.034152,61.7362263 316.104282,61.7362263 C319.409938,61.7362263 327.060598,60.1320393 327.060598,46.4952913 M295.086166,45.5996138 C295.086166,37.5307927 300.424644,27.1070528 314.592809,27.1070528 C326.353697,27.1070528 333.674744,33.9444783 333.674744,44.7495054 C333.674744,55.5553049 326.116861,64.0947493 314.12094,64.0947493 C300.564324,64.0947493 295.086166,53.9503455 295.086166,45.5996138" id="Fill-22" fill="#FFFFFF"></path>
                <g id="Group-26" transform="translate(335.797121, 26.821409)">
                    <mask id="mask-2" fill="white">
                        <use xlink:href="#path-1"></use>
                    </mask>
                    <g id="Clip-25"></g>
                    <path d="M8.39948951,30.1963808 C8.49406936,33.8774377 9.10664784,35.1039417 10.0521886,35.4339959 C10.8546999,35.7166789 11.7528219,35.7643076 12.5076568,35.7643076 C13.0292633,35.7643076 13.3127452,35.8587927 13.3127452,36.1414756 C13.3127452,36.519416 12.8859761,36.6128713 12.224948,36.6128713 C9.15612831,36.6128713 7.2663353,36.4715298 6.3682133,36.4715298 C5.94247512,36.4715298 3.72229692,36.6128713 1.26837505,36.6128713 C0.653219465,36.6128713 0.227223578,36.5660149 0.227223578,36.1414756 C0.227223578,35.8587927 0.510189993,35.7643076 0.983862371,35.7643076 C1.59876025,35.7643076 2.44740178,35.7166789 3.11049157,35.528481 C4.33719479,35.1497683 4.52635449,33.7821802 4.57403098,29.6770989 L4.9984806,1.74658401 C4.9984806,0.803792683 5.13996381,0.143684282 5.61183221,0.143684282 C6.13137711,0.143684282 6.55582673,0.756678862 7.36014202,1.60524255 C7.9273634,2.21720732 15.1061544,9.90680081 22.0019789,16.7491179 C25.2140858,19.9580068 31.5903655,26.7519228 32.3913305,27.5067737 L32.6281667,27.5067737 L32.15836,6.32151626 C32.1101681,3.44293902 31.6841722,2.54674661 30.5517911,2.07638076 C29.8438596,1.79344038 28.7089014,1.79344038 28.0476156,1.79344038 C27.4803942,1.79344038 27.2930385,1.65132656 27.2930385,1.36967344 C27.2930385,0.99250542 27.8107794,0.945649051 28.5197417,0.945649051 C30.9752099,0.945649051 33.2430646,1.08699051 34.2347356,1.08699051 C34.7545382,1.08699051 36.5505245,0.945649051 38.8652825,0.945649051 C39.4781187,0.945649051 39.9499871,0.99250542 39.9499871,1.36967344 C39.9499871,1.65132656 39.6652167,1.79344038 39.0995416,1.79344038 C38.6276732,1.79344038 38.2501269,1.79344038 37.6818747,1.93529675 C36.3605916,2.31040515 35.9830454,3.3008252 35.9353689,5.94306098 L35.4155663,35.7166789 C35.4155663,36.7560149 35.2266643,37.1797818 34.8022147,37.1797818 C34.2808658,37.1797818 33.714933,36.6605 33.1953881,36.1414756 C30.2203751,33.3105271 24.1747383,27.1288333 19.2619981,22.2689011 C14.1144833,17.1733997 8.87161563,11.2759336 8.02117012,10.3792263 L7.87814064,10.3792263 L8.39948951,30.1963808 Z" id="Fill-24" fill="#FFFFFF" mask="url(#mask-2)"></path>
                </g>
                <path d="M95.3547339,88.8258753 L93.9757236,84.9210921 L92.5972288,88.8258753 L95.3547339,88.8258753 Z M93.0335331,81.5904282 L94.9009053,81.5904282 L100.328552,94.4748997 L97.6932014,94.4748997 L96.2969245,91.1444932 L91.7248779,91.1444932 L90.2935523,94.4748997 L87.6584598,94.4748997 L93.0335331,81.5904282 Z" id="Fill-27" fill="#FFFFFF"></path>
                <path d="M113.116134,87.2743631 C113.709642,87.2743631 114.390256,87.3091192 114.965982,87.1348238 C115.664378,86.908523 116.135215,86.298103 116.135215,85.5481436 C116.135215,84.7634282 115.611805,84.2060434 114.8964,84.0137263 C114.372989,83.8739295 113.639802,83.9089431 113.116134,83.9089431 L112.680087,83.9089431 L112.680087,87.2743631 L113.116134,87.2743631 Z M110.288789,94.4747967 L110.288789,81.5905827 L113.325395,81.5905827 C114.564726,81.5905827 115.73396,81.5378049 116.815829,82.2705149 C117.880433,82.9854607 118.526256,84.2230352 118.526256,85.5133875 C118.526256,86.7857182 118.002845,88.0063008 116.990557,88.8087805 C115.925954,89.6624932 114.424789,89.5927236 113.151182,89.5927236 L112.680087,89.5927236 L112.680087,94.4747967 L110.288789,94.4747967 Z" id="Fill-29" fill="#FFFFFF"></path>
                <path d="M135.346444,88.8258753 L133.967434,84.9210921 L132.589197,88.8258753 L135.346444,88.8258753 Z M133.025244,81.5904282 L134.892873,81.5904282 L140.32052,94.4748997 L137.68517,94.4748997 L136.288635,91.1444932 L131.716588,91.1444932 L130.285263,94.4748997 L127.65017,94.4748997 L133.025244,81.5904282 Z" id="Fill-31" fill="#FFFFFF"></path>
                <path d="M153.980659,87.7280461 C154.608958,87.7280461 155.411985,87.6402547 155.88308,87.1873957 C156.266811,86.8207832 156.476588,86.333168 156.476588,85.7925176 C156.476588,85.234103 156.231763,84.6767182 155.778192,84.3456341 C155.21999,83.9267588 154.661531,83.9089946 153.997926,83.9089946 L152.672004,83.9089946 L152.672004,87.7280461 L153.980659,87.7280461 Z M150.280963,81.5906341 L154.01545,81.5906341 C155.237257,81.607626 156.389224,81.6773957 157.366463,82.4968672 C158.291645,83.2648482 158.867628,84.4674092 158.867628,85.6699702 C158.867628,86.6122466 158.431066,87.7800515 157.80251,88.4769756 C157.174726,89.1569079 156.389224,89.5230054 155.516615,89.7153225 L159.006792,94.4748482 L156.057808,94.4748482 L152.707053,89.5410271 L152.672004,89.5410271 L152.672004,94.4748482 L150.280963,94.4748482 L150.280963,81.5906341 Z" id="Fill-33" fill="#FFFFFF"></path>
                <polygon id="Fill-35" fill="#FFFFFF" points="170.364157 83.9090203 167.990383 83.9090203 167.990383 81.5906599 175.163247 81.5906599 175.163247 83.9090203 172.754682 83.9090203 172.754682 94.474874 170.364157 94.474874"></polygon>
                <polygon id="Fill-37" fill="#FFFFFF" points="185.038568 81.5905569 188.301702 81.5905569 191.758119 91.4414648 195.26582 81.5905569 198.511687 81.5905569 198.511687 94.474771 196.121162 94.474771 196.121162 84.8164377 192.786385 94.474771 190.762067 94.474771 187.429866 84.8164377 187.429866 94.474771 185.038568 94.474771"></polygon>
                <polygon id="Fill-39" fill="#FFFFFF" points="209.396513 81.5905569 216.324809 81.5905569 216.324809 83.9089173 211.787296 83.9089173 211.787296 86.8734837 216.132299 86.8734837 216.132299 89.1918442 211.787296 89.1918442 211.787296 92.1564106 216.324809 92.1564106 216.324809 94.474771 209.396513 94.474771"></polygon>
                <polygon id="Fill-41" fill="#FFFFFF" points="227.124462 81.5905569 229.81187 81.5905569 235.187717 91.0055976 235.187717 81.5905569 237.578242 81.5905569 237.578242 94.474771 234.925367 94.474771 229.516018 85.0944864 229.516018 94.474771 227.124462 94.474771"></polygon>
                <polygon id="Fill-43" fill="#FFFFFF" points="249.999307 83.9090203 247.625791 83.9090203 247.625791 81.5906599 254.798397 81.5906599 254.798397 83.9090203 252.391636 83.9090203 252.391636 94.474874 249.999307 94.474874"></polygon>
                <path d="M287.793931,85.373771 C287.026983,84.3107493 285.699773,83.6655732 284.408127,83.6655732 C283.309248,83.6655732 282.244129,84.0664268 281.425382,84.7813726 C280.533445,85.5653157 279.940195,86.8384187 279.940195,88.0239878 C279.940195,89.1052886 280.42933,90.2558442 281.179269,91.0227954 C282.051619,91.9470501 283.273426,92.4696789 284.514561,92.4696789 C286.031962,92.4696789 287.584412,91.5281748 288.282808,90.1513184 L282.889953,90.1513184 L282.889953,87.9016978 L291.302147,87.9016978 L291.302147,88.1807764 C291.302147,91.9470501 288.12612,94.7888117 284.443948,94.7888117 C280.725955,94.7888117 277.550701,91.8942724 277.550701,88.1110068 C277.550701,84.3107493 280.708946,81.3472127 284.408127,81.3472127 C287.026983,81.3472127 289.678312,82.8978496 290.657355,85.373771 L287.793931,85.373771 Z" id="Fill-45" fill="#FFFFFF"></path>
                <path d="M305.224378,87.7280461 C305.853193,87.7280461 306.655188,87.6402547 307.125253,87.1873957 C307.510273,86.8207832 307.720049,86.333168 307.720049,85.7925176 C307.720049,85.234103 307.474451,84.6767182 307.021395,84.3456341 C306.462421,83.9267588 305.90525,83.9089946 305.240614,83.9089946 L303.915981,83.9089946 L303.915981,87.7280461 L305.224378,87.7280461 Z M301.524425,81.5906341 L305.259427,81.5906341 C306.47943,81.607626 307.631397,81.6773957 308.609409,82.4968672 C309.534849,83.2648482 310.110574,84.4674092 310.110574,85.6699702 C310.110574,86.6122466 309.674528,87.7800515 309.045714,88.4769756 C308.416899,89.1569079 307.631397,89.5230054 306.758788,89.7153225 L310.251284,94.4748482 L307.300754,94.4748482 L303.949225,89.5410271 L303.915981,89.5410271 L303.915981,94.4748482 L301.524425,94.4748482 L301.524425,81.5906341 Z" id="Fill-47" fill="#FFFFFF"></path>
                <path d="M322.026424,88.0412114 C322.026424,90.4303713 323.997654,92.4696531 326.355192,92.4696531 C328.70938,92.4696531 330.682413,90.4303713 330.682413,88.0412114 C330.682413,85.6180678 328.76221,83.6655474 326.355192,83.6655474 C323.945081,83.6655474 322.026424,85.6180678 322.026424,88.0412114 M333.072938,88.0939892 C333.072938,91.824477 330.019839,94.7887859 326.355192,94.7887859 C322.689256,94.7887859 319.635899,91.824477 319.635899,88.0939892 C319.635899,84.3457371 322.636425,81.347187 326.355192,81.347187 C330.070866,81.347187 333.072938,84.3457371 333.072938,88.0939892" id="Fill-49" fill="#FFFFFF"></path>
                <path d="M346.001076,81.5905569 L346.001076,89.6277114 C346.001076,90.2208821 345.965254,90.8313022 346.244612,91.3716951 C346.594068,92.0338631 347.205874,92.4694729 347.955554,92.4694729 C348.584111,92.4694729 349.229934,92.121397 349.580163,91.5632398 C349.946628,90.9708415 349.926784,90.3076436 349.926784,89.6277114 L349.926784,81.5905569 L352.319371,81.5905569 L352.319371,89.6277114 C352.319371,90.9010718 352.213709,92.1036328 351.375376,93.1146491 C350.538589,94.1089309 349.263952,94.7888631 347.955554,94.7888631 C346.733747,94.7888631 345.45911,94.1259228 344.656599,93.2194322 C343.714408,92.1564106 343.611324,90.9708415 343.611324,89.6277114 L343.611324,81.5905569 L346.001076,81.5905569 Z" id="Fill-51" fill="#FFFFFF"></path>
                <path d="M366.257786,87.2743631 C366.852582,87.2743631 367.532166,87.3091192 368.108149,87.1348238 C368.806803,86.908523 369.277125,86.298103 369.277125,85.5481436 C369.277125,84.7634282 368.75423,84.2060434 368.039083,84.0137263 C367.515157,83.8739295 366.782485,83.9089431 366.257786,83.9089431 L365.821482,83.9089431 L365.821482,87.2743631 L366.257786,87.2743631 Z M363.430699,94.4747967 L363.430699,81.5905827 L366.467047,81.5905827 C367.707667,81.5905827 368.876643,81.5378049 369.958512,82.2705149 C371.023631,82.9854607 371.669454,84.2230352 371.669454,85.5133875 C371.669454,86.7857182 371.144755,88.0063008 370.132467,88.8087805 C369.067349,89.6624932 367.567987,89.5927236 366.294381,89.5927236 L365.821482,89.5927236 L365.821482,94.4747967 L363.430699,94.4747967 Z" id="Fill-53" fill="#FFFFFF"></path>
            </g>
        </g>
    </g>
</svg>