<?xml version="1.0" encoding="UTF-8" standalone="no"?>
<svg width="158px" height="31px" viewBox="0 0 158 31" version="1.1" xmlns="http://www.w3.org/2000/svg" xmlns:xlink="http://www.w3.org/1999/xlink">
    <!-- Generator: Sketch 41.2 (35397) - http://www.bohemiancoding.com/sketch -->
    <title>Page 1</title>
    <desc>Created with Sketch.</desc>
    <defs>
        <polygon id="path-1" points="10.776414 8.7875605 10.776414 0.00198275912 0.00541372886 0.00198275912 0.00541372886 8.7875605 10.776414 8.7875605"></polygon>
        <polygon id="path-3" points="36.1682648 0.109051752 5.62465357e-05 0.109051752 5.62465357e-05 30.6543217 36.1682648 30.6543217 36.1682648 0.109051752"></polygon>
        <polygon id="path-5" points="0.0421708386 11.1704739 6.48971099 11.1704739 6.48971099 0.072524302 0.0421708386 0.072524302 0.0421708386 11.1704739"></polygon>
    </defs>
    <g id="R5" stroke="none" stroke-width="1" fill="none" fill-rule="evenodd">
        <g id="C-4" transform="translate(-1716.000000, -1703.000000)">
            <g id="Logos-Copy" transform="translate(1381.000000, 1651.000000)">
                <g id="Page-1" transform="translate(335.000000, 52.000000)">
                    <polygon id="Fill-1" fill="#FEFEFE" points="43.3206865 3.26550653 41.703458 3.26550653 41.703458 2.13952276 45.5711103 2.13952276 45.5711103 3.26550653 52.3753941 10.6634322 52.3753941 3.26550653 50.6678899 3.26550653 50.6678899 2.13952276 55.417066 2.13952276 55.417066 3.26550653 53.7471064 3.26550653 53.7471064 14.1241846 52.4888715 14.1241846 44.6717282 5.76643601 44.6717282 13.0012727 46.3363444 13.0012727 46.3363444 14.1241846 41.703458 14.1241846 41.703458 13.0012727 43.3206865 13.0012727"></polygon>
                    <g id="Group-43" transform="translate(0.000000, 0.030579)">
                        <path d="M58.291531,9.7907668 C58.291531,7.77282069 58.9725359,6.23478606 60.5487044,6.23478606 C62.0192701,6.23478606 62.7888633,7.5864134 62.7888633,9.91154755 C62.7888633,12.1126894 61.9114173,13.4070681 60.5487044,13.4070681 C59.1294638,13.4070681 58.291531,12.0735928 58.291531,9.7907668 M55.7051748,9.83000309 C55.7051748,11.6943552 56.9500512,14.3307267 60.5487044,14.3307267 C63.909013,14.3307267 65.3608766,11.951695 65.3608766,9.83000309 C65.3608766,7.60973177 63.7696622,5.30791598 60.5685313,5.30791598 C57.0625443,5.30791598 55.7051748,7.83314125 55.7051748,9.83000309" id="Fill-2" fill="#FEFEFE"></path>
                        <path d="M67.5524244,6.46996642 L66.0407988,6.46996642 L66.0407988,5.55468572 L69.8725939,5.55468572 L69.8725939,6.99330313 L69.9099978,6.99330313 C70.2741941,6.44971994 70.6178605,6.03138569 70.9612455,5.74849344 C71.2999903,5.45512887 71.6674208,5.30795787 72.0311952,5.30795787 C72.447279,5.30795787 73.0291493,5.67127754 73.418516,6.15747242 C73.3175534,6.9349374 72.991886,7.89252628 72.5698964,8.57364593 C72.0909572,7.69452963 71.6866852,7.35131682 71.1229543,7.35131682 C70.6390935,7.35131682 70.3963897,7.60977366 69.8725939,8.19021941 L69.8725939,13.1761604 L71.3580648,13.1761604 L71.3580648,14.0935356 L66.0407988,14.0935356 L66.0407988,13.1761604 L67.5524244,13.1761604 L67.5524244,6.46996642 Z" id="Fill-4" fill="#FEFEFE"></path>
                        <path d="M73.9646839,6.67435817 L77.5713522,3.23496925 L77.5713522,5.55465779 L79.9870002,5.55465779 L79.9870002,6.67435817 L77.5713522,6.67435817 L77.5713522,11.5565534 C77.5713522,12.6529354 77.9543911,13.4070821 78.7207501,13.4070821 C79.4014738,13.4070821 79.830213,12.7705047 80.15349,12.7705047 C80.3102772,12.7705047 80.4116616,12.8499547 80.4116616,13.020444 C80.4116616,13.4315175 79.62646,14.3307406 77.8572252,14.3307406 C76.0597266,14.3307406 75.256948,13.4315175 75.256948,11.4549021 L75.256948,6.67435817 L73.9646839,6.67435817 Z" id="Fill-6" fill="#FEFEFE"></path>
                        <path d="M84.9900872,6.56738692 C86.0525842,5.8132403 87.1448919,5.30791598 88.0506017,5.30791598 C89.4224547,5.30791598 90.4263147,6.37665108 90.4263147,7.83314125 L90.4263147,13.1762582 L91.9368154,13.1762582 L91.9368154,14.0934937 L86.8643623,14.0934937 L86.8643623,13.1762582 L88.111348,13.1762582 L88.111348,8.29196846 C88.111348,7.29081474 87.6452048,6.75281679 86.8024911,6.75281679 C86.322427,6.75281679 85.6781229,7.00806212 84.9900872,7.44971473 L84.9900872,13.1762582 L86.2242768,13.1762582 L86.2242768,14.0934937 L81.1380434,14.0934937 L81.1380434,13.1762582 L82.6741362,13.1762582 L82.6741362,1.85246951 L81.1380434,1.85246951 L81.1380434,0.928810944 L84.9900872,0.928810944 L84.9900872,6.56738692 Z" id="Fill-8" fill="#FEFEFE"></path>
                        <polygon id="Fill-10" fill="#FEFEFE" points="91.3073885 6.46996642 91.3073885 5.55468572 96.0651422 5.55468572 96.0651422 6.46996642 94.8949331 6.46996642 96.8289701 10.7516091 98.4204658 6.46996642 97.2086342 6.46996642 97.2086342 5.55468572 101.602613 5.55468572 101.602613 6.46996642 100.498494 6.46996642 102.448421 10.7516091 104.044275 6.46996642 102.734434 6.46996642 102.734434 5.55468572 106.278107 5.55468572 106.278107 6.46996642 105.06515 6.46996642 102.08788 14.2756143 101.602613 14.2756143 98.7575231 8.21242073 96.4682892 14.2756143 96.0651422 14.2756143 92.4168514 6.46996642"></polygon>
                        <path d="M109.00259,8.35122783 C109.019605,7.29087059 109.484764,6.23470228 110.430971,6.23470228 C111.257795,6.23470228 111.846556,6.99317746 112.024716,8.35122783 L109.00259,8.35122783 Z M114.419553,9.27167488 C114.159272,6.85228986 112.626414,5.30797184 110.488624,5.30797184 C108.155658,5.30797184 106.542789,7.08854538 106.542789,9.65091247 C106.542789,11.6730475 107.612598,14.3307825 111.175675,14.3307825 C112.40663,14.3307825 113.290967,14.0935496 114.419553,13.4558551 L114.582809,12.3298714 C113.917131,12.8499966 112.746781,13.2165277 111.846556,13.2165277 C110.130193,13.2165277 109.00259,11.608538 109.00259,9.27167488 L114.419553,9.27167488 Z" id="Fill-12" fill="#FEFEFE"></path>
                        <path d="M115.94614,11.5734488 L116.529558,11.5734488 C116.894457,12.7365744 117.67319,13.4070821 118.663129,13.4070821 C119.325573,13.4070821 119.853587,13.0755983 119.853587,12.3923841 C119.853587,11.0110154 115.859661,10.6328949 115.859661,7.93494615 C115.859661,6.44983164 117.13013,5.30792995 118.783637,5.30792995 C119.390678,5.30792995 119.873976,5.45510094 120.434051,5.81325426 L120.593932,5.3704846 L121.242595,5.3704846 L121.242595,7.6520539 L120.593932,7.6520539 C120.232267,6.62995554 119.809855,6.23480002 119.031122,6.23480002 C118.296121,6.23480002 117.83743,6.55567189 117.83743,7.0515013 C117.83743,8.7939556 121.928381,8.76854277 121.928381,11.6730056 C121.928381,13.2536277 120.655803,14.3307406 118.864632,14.3307406 C118.11585,14.3307406 117.413894,14.1729577 116.749341,13.831979 L116.647957,14.2376068 L115.94614,14.2376068 L115.94614,11.5734488 Z" id="Fill-14" fill="#FEFEFE"></path>
                        <path d="M122.532244,6.67435817 L126.135678,3.23496925 L126.135678,5.55465779 L128.551889,5.55465779 L128.551889,6.67435817 L126.135678,6.67435817 L126.135678,11.5565534 C126.135678,12.6529354 126.518717,13.4070821 127.283529,13.4070821 C127.971565,13.4070821 128.391867,12.7705047 128.716128,12.7705047 C128.877134,12.7705047 128.980768,12.8499547 128.980768,13.020444 C128.980768,13.4315175 128.192333,14.3307406 126.423801,14.3307406 C124.626162,14.3307406 123.818743,13.4315175 123.818743,11.4549021 L123.818743,6.67435817 L122.532244,6.67435817 Z" id="Fill-16" fill="#FEFEFE"></path>
                        <path d="M131.789509,8.35122783 C131.813977,7.29087059 132.270558,6.23470228 133.216765,6.23470228 C134.044573,6.23470228 134.6301,6.99317746 134.813604,8.35122783 L131.789509,8.35122783 Z M137.204222,9.27167488 C136.945067,6.85228986 135.416426,5.30797184 133.28187,5.30797184 C130.940327,5.30797184 129.332661,7.08854538 129.332661,9.65091247 C129.332661,11.6730475 130.398392,14.3307825 133.964563,14.3307825 C135.18919,14.3307825 136.081964,14.0935496 137.204222,13.4558551 L137.368603,12.3298714 C136.700816,12.8499966 135.536935,13.2165277 134.6301,13.2165277 C132.917112,13.2165277 131.789509,11.608538 131.789509,9.27167488 L137.204222,9.27167488 Z" id="Fill-18" fill="#FEFEFE"></path>
                        <path d="M139.756985,6.46996642 L138.237907,6.46996642 L138.237907,5.55468572 L142.074061,5.55468572 L142.074061,6.99330313 L142.11245,6.99330313 C142.475099,6.44971994 142.819609,6.03138569 143.159901,5.74849344 C143.503426,5.45512887 143.861857,5.30795787 144.22985,5.30795787 C144.650153,5.30795787 145.236945,5.67127754 145.611265,6.15747242 C145.517334,6.9349374 145.197431,7.89252628 144.769677,8.57364593 C144.289612,7.69452963 143.886465,7.35131682 143.314579,7.35131682 C142.836624,7.35131682 142.593498,7.60977366 142.074061,8.19021941 L142.074061,13.1761604 L143.565298,13.1761604 L143.565298,14.0935356 L138.237907,14.0935356 L138.237907,13.1761604 L139.756985,13.1761604 L139.756985,6.46996642 Z" id="Fill-20" fill="#FEFEFE"></path>
                        <g id="Group-24" transform="translate(146.522220, 5.305975)">
                            <mask id="mask-2" fill="white">
                                <use xlink:href="#path-1"></use>
                            </mask>
                            <g id="Clip-23"></g>
                            <path d="M1.50958665,1.16399131 L0.00541372886,1.16399131 L0.00541372886,0.248710602 L3.82863124,0.248710602 L3.82863124,1.28156055 C4.9732482,0.507167442 5.79796299,0.00198275912 6.87002193,0.00198275912 C8.38263183,0.00198275912 9.27020213,0.989173392 9.27020213,2.62899896 L9.27020213,7.87018533 L10.7764843,7.87018533 L10.7764843,8.7875605 L5.70304697,8.7875605 L5.70304697,7.87018533 L6.94679844,7.87018533 L6.94679844,2.76667506 C6.94679844,1.90235964 6.3653499,1.44674393 5.72428004,1.44674393 C5.15886176,1.44674393 4.61805134,1.64809172 3.82863124,2.12576911 L3.82863124,7.87018533 L5.02991658,7.87018533 L5.02991658,8.7875605 L0.00541372886,8.7875605 L0.00541372886,7.87018533 L1.50958665,7.87018533 L1.50958665,1.16399131 Z" id="Fill-22" fill="#FEFEFE" mask="url(#mask-2)"></path>
                        </g>
                        <g id="Group-27">
                            <mask id="mask-4" fill="white">
                                <use xlink:href="#path-3"></use>
                            </mask>
                            <g id="Clip-26"></g>
                            <path d="M20.5680074,4.54948269 C21.7403258,3.31109603 23.4753908,2.85352549 25.2948255,3.02206002 L25.2979191,3.09299253 C24.7028307,3.25817591 23.2637632,3.77941815 21.8342575,5.281428 C20.6485806,6.53657038 19.8234439,8.04933181 19.4115787,9.38825274 C18.9545756,6.87028828 19.7881492,5.37777334 20.5680074,4.54948269 L20.5680074,4.54948269 Z M11.3524347,3.64383652 L11.3454039,3.71895796 C12.1443859,4.01246216 15.8807026,5.64153615 17.5266167,11.7503891 C17.6206891,12.1084028 17.8019435,12.2513848 18.0542092,12.2513848 C18.4451226,12.2513848 18.6141435,11.9644433 18.6141435,11.4284002 C18.6141435,8.57364593 17.0547083,6.04828103 15.672731,4.94771009 C14.2923004,3.83764424 12.4510702,3.56648099 11.3524347,3.64383652 L11.3524347,3.64383652 Z M5.9396902,0.108940047 C5.44303331,0.108940047 5.16897207,0.365302424 5.16897207,0.730716552 C5.16897207,1.18409816 5.46384452,1.4118362 6.0516208,1.65228065 C7.83322975,2.37151954 11.2302392,2.81010027 15.0752522,2.81233437 C21.8789735,2.81233437 28.8300608,1.8525114 31.9123708,0.619570336 L31.8883254,0.540120341 C29.3842297,0.70320926 25.0675895,0.988195976 18.1726082,0.988195976 C8.78253062,0.988195976 6.81657366,0.108940047 5.9396902,0.108940047 L5.9396902,0.108940047 Z M6.61971079,9.64349807 C6.43676894,9.96660402 5.87992826,10.4634109 4.87930242,10.4634109 C3.6472221,10.4634109 2.63323772,9.45499632 2.63323772,8.01973005 C2.63323772,6.73470666 3.77096448,5.41812667 5.78712148,5.41812667 C10.791235,5.41812667 16.6535299,12.5553614 16.7277753,21.6503612 C16.7277753,22.2245236 16.6876997,23.237127 16.588987,24.0612288 L16.6705445,24.0761693 C17.2067146,22.5148163 17.629126,20.0816078 17.629126,18.3719668 C17.629126,10.4474929 12.1764465,2.83872461 5.74760829,2.83872461 C1.93353084,2.83872461 5.62465357e-05,5.34817158 5.62465357e-05,7.547219 C5.62465357e-05,10.0555489 1.48819891,11.9559258 3.80035329,11.9559258 C5.61641325,11.9559258 6.61971079,10.6509352 6.61971079,9.64349807 L6.61971079,9.64349807 Z M29.5467822,8.06413268 C29.2070531,8.12026432 28.7351447,8.62977756 28.7351447,9.38825274 C28.7351447,10.2525682 29.3777614,11.9972566 31.8659674,11.9972566 C34.4326374,11.9972566 36.1682648,10.1000912 36.1682648,7.50588825 C36.1682648,4.96153355 34.2965207,2.60889211 30.188977,2.60889211 C25.3005908,2.60889211 19.0153219,6.94554935 19.0153219,17.4820989 C19.0201028,19.4926446 19.2633691,21.6907146 19.7556669,24.0634629 L19.8415834,24.0634629 C19.8415834,11.1126946 24.7320789,5.00607582 30.0125035,5.00607582 C32.2782545,5.00607582 33.5124441,6.4328246 33.5124441,7.91905615 C33.5124441,9.28338991 32.6968693,10.2622027 31.3960276,10.2622027 C29.7980636,10.2622027 29.3036566,8.89032886 29.5467822,8.06413268 L29.5467822,8.06413268 Z M19.045695,25.7805043 C16.7816314,25.7805043 13.6793538,26.3683505 11.3747927,27.8174403 L11.3998224,27.8915843 C12.3187502,27.7656372 15.2529912,27.3799766 18.5742084,27.3799766 C21.7190927,27.3799766 23.5217941,27.8915843 23.9938432,27.8915843 C24.404021,27.8915843 24.5896346,27.6617518 24.5896346,27.2889372 C24.5896346,26.2465924 21.9494223,25.7805043 19.045695,25.7805043 L19.045695,25.7805043 Z M19.045695,28.5408681 C16.3938116,28.5408681 13.6340754,29.1743736 11.3747927,30.5822722 L11.3998224,30.6543217 C12.4985985,30.4888591 15.1750898,30.1839052 18.4605904,30.1839052 C22.0855389,30.1839052 23.3905991,30.6543217 23.9938432,30.6543217 C24.404021,30.6543217 24.5896346,30.4264441 24.5896346,30.050418 C24.5896346,29.0154736 21.9494223,28.5408681 19.045695,28.5408681 L19.045695,28.5408681 Z M29.7110221,16.0923523 C25.2782328,16.0923523 23.6518643,23.492512 24.5470278,26.0674459 L24.6045399,26.0674459 C25.1229923,22.3115137 27.165304,18.1241219 29.9281337,18.1241219 C31.411636,18.1241219 31.8173142,19.0424745 31.8765136,19.4460078 C32.8211742,18.4482052 32.255334,16.0923523 29.7110221,16.0923523 L29.7110221,16.0923523 Z M29.5356735,14.9959703 C29.8178905,14.6061207 29.9281337,14.1030305 29.9281337,13.7641463 C29.9281337,12.6019981 28.8300608,11.4781088 27.2164883,11.4781088 C22.5232776,11.4781088 20.7818849,19.6346492 22.1287081,24.8356219 L22.1894544,24.8356219 C22.6534883,17.6919642 24.9543934,13.8519741 27.5829345,13.8519741 C28.9515533,13.8519741 29.4203681,14.6591805 29.5356735,14.9959703 L29.5356735,14.9959703 Z M11.8547163,26.0601851 C11.9982856,25.4384086 12.0899674,24.9584971 12.0899674,24.1152659 C12.0899674,21.0729874 10.2471904,16.0711284 6.71420497,16.0711284 C4.02266772,16.0711284 3.6472221,18.6251176 4.50920023,19.4365129 C4.68511127,18.8655621 5.28146514,18.1082039 6.37967871,18.1082039 C9.2230816,18.1082039 11.3475132,22.5666194 11.7876423,26.0601851 L11.8547163,26.0601851 Z M8.87435309,13.9071283 C11.5640623,13.9071283 13.9162924,18.2056663 14.3136741,24.8927309 L14.3936848,24.9012484 C14.7660369,23.5517155 14.9291518,22.1291557 14.8875294,20.7172078 C14.8875294,15.837107 12.5748125,11.5258626 9.45777026,11.5258626 C6.53168496,11.5258626 6.27787248,13.9357527 6.97659505,14.9959703 C7.2559997,14.6241331 7.7707961,13.9071283 8.87435309,13.9071283 L8.87435309,13.9071283 Z" id="Fill-25" fill="#FEFEFE" mask="url(#mask-4)"></path>
                        </g>
                        <polygon id="Fill-28" fill="#FEFEFE" points="43.4017518 19.6208397 41.7711648 19.6208397 41.7711648 18.4948559 46.1700656 18.4948559 46.1700656 19.6208397 49.6108066 26.6755525 52.9982541 19.6208397 52.9982541 18.4948559 57.5277875 18.4948559 57.5277875 19.6208397 55.9174492 19.6208397 55.9174492 29.3587004 57.5277875 29.3587004 57.5277875 30.4816122 51.786985 30.4816122 51.786985 29.3587004 53.4777558 29.3587004 53.4777558 21.7965688 53.4366959 21.7965688 49.3073566 30.4816122 48.8454319 30.4816122 44.8141023 22.1365701 44.7747297 22.1365701 44.7747297 29.3587004 46.4057385 29.3587004 46.4057385 30.4816122 41.7711648 30.4816122 41.7711648 29.3587004 43.4017518 29.3587004"></polygon>
                        <path d="M68.4603278,29.5653122 L68.4603278,30.4815704 L64.6402038,30.4815704 L64.6402038,29.6669635 C63.5073987,30.4423341 62.4991795,30.7188033 61.6746054,30.7188033 C59.7796596,30.7188033 59.212554,29.5780186 59.212554,28.3174307 L59.212554,22.8580012 L57.701069,22.8580012 L57.701069,21.9407656 L61.5317392,21.9407656 L61.5317392,28.1416353 C61.5317392,28.9414413 61.9488072,29.5228644 62.700964,29.5228644 C63.2236349,29.5228644 63.770773,29.2962434 64.6402038,28.7803072 L64.6402038,22.8580012 L63.145171,22.8580012 L63.145171,21.9407656 L66.9523582,21.9407656 L66.9523582,29.5653122 L68.4603278,29.5653122 Z" id="Fill-30" fill="#FEFEFE"></path>
                        <g id="Group-34" transform="translate(68.620771, 19.548329)">
                            <mask id="mask-6" fill="white">
                                <use xlink:href="#path-5"></use>
                            </mask>
                            <g id="Clip-33"></g>
                            <path d="M0.0421708386,3.51303027 L3.65263583,0.072524302 L3.65263583,2.39235247 L6.06772137,2.39235247 L6.06772137,3.51303027 L3.65263583,3.51303027 L3.65263583,8.3950859 C3.65263583,9.4904905 4.03229993,10.2468712 4.79767464,10.2468712 C5.48683529,10.2468712 5.90390334,9.61029383 6.23083632,9.61029383 C6.38776415,9.61029383 6.48971099,9.68862678 6.48971099,9.85813872 C6.48971099,10.272284 5.70338445,11.1705298 3.93527466,11.1705298 C2.138901,11.1705298 1.32824783,10.272284 1.32824783,8.29469127 L1.32824783,3.51303027 L0.0421708386,3.51303027 Z" id="Fill-32" fill="#FEFEFE" mask="url(#mask-6)"></path>
                        </g>
                        <path d="M86.2189755,29.5653122 L86.2189755,30.4815704 L82.3892897,30.4815704 L82.3892897,29.6669635 C81.2574688,30.4423341 80.2526245,30.7188033 79.4297377,30.7188033 C77.5350732,30.7188033 76.9644521,29.5780186 76.9644521,28.3174307 L76.9644521,22.8580012 L75.4549358,22.8580012 L75.4549358,21.9407656 L79.2867309,21.9407656 L79.2867309,28.1416353 C79.2867309,28.9414413 79.7154701,29.5228644 80.4552526,29.5228644 C80.9770798,29.5228644 81.5209838,29.2962434 82.3892897,28.7803072 L82.3892897,22.8580012 L80.9012876,22.8580012 L80.9012876,21.9407656 L84.7052407,21.9407656 L84.7052407,29.5653122 L86.2189755,29.5653122 Z" id="Fill-35" fill="#FEFEFE"></path>
                        <path d="M91.1515997,26.6629299 L91.1515997,28.7199727 C90.7280633,29.0589965 90.2640294,29.288829 89.904614,29.288829 C89.3819431,29.288829 88.9742964,28.822741 88.9742964,28.2432727 C88.9742964,27.4605017 89.4331275,27.0590628 91.1515997,26.6629299 L91.1515997,26.6629299 Z M95.1210582,29.2590877 C94.8787762,29.378891 94.6933033,29.4234333 94.4714107,29.4234333 C93.9487398,29.4234333 93.4675507,29.0208773 93.4675507,28.3175563 L93.4675507,24.5200141 C93.4675507,22.8834 92.2385639,21.6959787 90.5691668,21.6959787 C89.4331275,21.6959787 88.1093653,22.2626009 87.1011462,23.1545633 L87.2590583,23.8590013 C88.2916041,23.2393193 88.996795,22.9987352 89.6581136,22.9987352 C90.6245697,22.9987352 91.1515997,23.5770865 91.1515997,24.6798915 L91.1515997,25.6767167 L89.0768057,26.2021478 C87.5087929,26.6003752 86.8376312,27.2422586 86.8376312,28.4011953 C86.8376312,29.7389991 87.6825947,30.7187893 88.8516789,30.7187893 C89.6219752,30.7187893 90.3696322,30.4062953 91.3543684,29.6669496 C91.6156336,30.3024099 92.297201,30.7187893 93.0974485,30.7187893 C93.8099515,30.7187893 94.4714107,30.5217701 95.1210582,30.1256372 L95.1210582,29.2590877 Z" id="Fill-37" fill="#FEFEFE"></path>
                        <polygon id="Fill-39" fill="#FEFEFE" points="97.2609154 18.2385075 95.7674293 18.2385075 95.7674293 17.3147093 99.5779913 17.3147093 99.5779913 29.5653681 101.0629 29.5653681 101.0629 30.4816262 95.7674293 30.4816262 95.7674293 29.5653681 97.2609154 29.5653681"></polygon>
                        <path d="M102.834623,16.9186183 C103.691258,16.9186183 104.40812,17.6103499 104.40812,18.4894662 C104.40812,19.3444263 103.705039,20.0529136 102.834623,20.0529136 C101.962099,20.0529136 101.260142,19.3444263 101.260142,18.4894662 C101.260142,17.6103499 101.974895,16.9186183 102.834623,16.9186183 L102.834623,16.9186183 Z M102.834623,19.7722555 C103.545158,19.7722555 104.125481,19.1939042 104.125481,18.4894662 C104.125481,17.7681328 103.545158,17.1994161 102.834623,17.1994161 C102.130557,17.1994161 101.542781,17.7681328 101.542781,18.4894662 C101.542781,19.1939042 102.123105,19.7722555 102.834623,19.7722555 L102.834623,19.7722555 Z M102.527377,19.3241798 L102.170071,19.3241798 L102.170071,17.6473521 L102.957381,17.6473521 C103.055532,17.6473521 103.598451,17.6473521 103.598451,18.1473704 C103.598451,18.4661478 103.370231,18.5573268 103.286986,18.594329 L103.598451,19.3241798 L103.216537,19.3241798 L102.941351,18.6547892 L102.527377,18.6547892 L102.527377,19.3241798 Z M102.527377,18.3760859 L102.902822,18.3760859 C103.02558,18.3760859 103.223006,18.3455067 103.223006,18.1409474 C103.223006,18.0425076 103.1579,17.9185153 102.932774,17.9185153 L102.527377,17.9185153 L102.527377,18.3760859 Z" id="Fill-41" fill="#FEFEFE"></path>
                    </g>
                </g>
            </g>
        </g>
    </g>
</svg>